<?xml version="1.0" encoding="UTF-8" standalone="no"?>
<!DOCTYPE svg PUBLIC "-//W3C//DTD SVG 1.1//EN" "http://www.w3.org/Graphics/SVG/1.1/DTD/svg11.dtd">
<svg width="100%" height="100%" viewBox="0 0 1883 635" version="1.1" xmlns="http://www.w3.org/2000/svg" xmlns:xlink="http://www.w3.org/1999/xlink" xml:space="preserve" xmlns:serif="http://www.serif.com/" style="fill-rule:evenodd;clip-rule:evenodd;stroke-linejoin:round;stroke-miterlimit:2;">
    <g transform="matrix(4.16667,0,0,4.16667,0,0)">
        <g>
            <path d="M212.69,116C212.69,121.523 208.213,126.001 202.69,126.001L195.854,126.001L195.854,118.193L195.61,118.193C194.878,119.25 193.902,120.348 192.682,121.486C191.543,122.544 190.161,123.52 188.534,124.415C186.989,125.309 185.24,126.041 183.288,126.611C181.417,127.18 179.465,127.464 177.432,127.464C173.04,127.464 169.055,126.732 165.476,125.268C161.897,123.723 158.807,121.608 156.204,118.924C153.683,116.159 151.731,112.906 150.348,109.165C148.965,105.423 148.274,101.316 148.274,96.843C148.274,92.695 148.884,88.75 150.104,85.008C151.405,81.186 153.195,77.81 155.472,74.882C157.831,71.955 160.677,69.637 164.012,67.929C167.347,66.139 171.129,65.245 175.358,65.245C179.181,65.245 182.719,65.855 185.972,67.075C189.307,68.213 192.031,70.206 194.146,73.053L194.39,73.053L194.39,43.769C194.39,38.246 198.867,33.769 204.39,33.769L212.69,33.769L212.69,116ZM195.854,96.354C195.854,91.881 194.553,88.262 191.95,85.496C189.429,82.731 185.85,81.348 181.214,81.348C176.578,81.348 172.959,82.731 170.356,85.496C167.835,88.262 166.574,91.881 166.574,96.354C166.574,100.828 167.835,104.447 170.356,107.212C172.959,109.978 176.578,111.361 181.214,111.361C185.85,111.361 189.429,109.978 191.95,107.212C194.553,104.447 195.854,100.828 195.854,96.354Z" style="fill:rgb(220,36,76);fill-rule:nonzero;"/>
            <path d="M224.53,76.708C224.53,71.186 229.007,66.709 234.53,66.709L242.83,66.709L242.83,76.224L243.074,76.224C245.026,72.565 247.344,69.84 250.028,68.051C252.712,66.18 256.087,65.245 260.154,65.245C261.211,65.245 262.268,65.285 263.326,65.367C264.383,65.448 265.359,65.611 266.254,65.855L266.254,82.569C264.952,82.162 263.651,81.877 262.35,81.714C261.13,81.47 259.828,81.348 258.446,81.348C254.948,81.348 252.183,81.836 250.15,82.812C248.116,83.787 246.53,85.17 245.392,86.959C244.334,88.667 243.643,90.741 243.318,93.181C242.992,95.622 242.83,98.305 242.83,101.233L242.83,116C242.83,121.522 238.353,126.001 232.83,126.001L224.53,126.001L224.53,76.708Z" style="fill:rgb(220,36,76);fill-rule:nonzero;"/>
            <path d="M310.64,118.56L310.396,118.56C308.363,121.732 305.638,124.009 302.222,125.392C298.888,126.774 295.35,127.465 291.608,127.465C288.843,127.465 286.159,127.059 283.556,126.246C281.035,125.514 278.798,124.375 276.846,122.83C274.894,121.284 273.349,119.373 272.21,117.095C271.072,114.818 270.502,112.175 270.502,109.166C270.502,105.75 271.112,102.862 272.332,100.504C273.634,98.145 275.342,96.193 277.456,94.648C279.652,93.102 282.133,91.923 284.898,91.11C287.664,90.215 290.51,89.564 293.438,89.157C296.448,88.751 299.416,88.507 302.344,88.425C305.354,88.344 308.119,88.304 310.64,88.304C310.64,85.05 309.461,82.488 307.102,80.617C304.825,78.665 302.1,77.689 298.928,77.689C295.919,77.689 293.154,78.34 290.632,79.641C288.192,80.862 285.996,82.57 284.044,84.765L274.284,74.761C277.7,71.59 281.686,69.231 286.24,67.685C290.795,66.059 295.512,65.245 300.392,65.245C305.76,65.245 310.152,65.937 313.568,67.319C317.066,68.621 319.831,70.573 321.864,73.175C323.979,75.778 325.443,78.991 326.256,82.813C327.07,86.555 327.476,90.906 327.476,95.867L327.476,116.002C327.476,121.524 322.999,126.002 317.476,126.002L310.64,126.002L310.64,118.56ZM306.126,100.015C304.744,100.015 302.995,100.097 300.88,100.259C298.847,100.341 296.854,100.666 294.902,101.235C293.032,101.805 291.405,102.659 290.022,103.797C288.721,104.936 288.07,106.522 288.07,108.556C288.07,110.752 289.006,112.378 290.876,113.435C292.747,114.493 294.699,115.021 296.732,115.021C298.522,115.021 300.23,114.777 301.856,114.289C303.564,113.801 305.069,113.11 306.37,112.215C307.672,111.321 308.688,110.182 309.42,108.799C310.234,107.417 310.64,105.79 310.64,103.92L310.64,100.015L306.126,100.015Z" style="fill:rgb(220,36,76);fill-rule:nonzero;"/>
            <path d="M340.18,76.708C340.18,71.186 344.657,66.709 350.18,66.709L357.748,66.709L357.748,74.76L357.992,74.76C358.561,73.622 359.374,72.483 360.432,71.345C361.489,70.206 362.75,69.189 364.214,68.295C365.678,67.4 367.345,66.668 369.216,66.099C371.086,65.529 373.12,65.245 375.316,65.245C379.952,65.245 383.693,65.977 386.54,67.441C389.386,68.823 391.582,70.775 393.128,73.296C394.754,75.818 395.852,78.786 396.422,82.202C396.991,85.618 397.276,89.319 397.276,93.305L397.276,116C397.276,121.523 392.799,126.001 387.276,126.001L378.976,126.001L378.976,96.964C378.976,95.256 378.894,93.508 378.732,91.718C378.65,89.848 378.284,88.14 377.634,86.595C377.064,85.049 376.129,83.788 374.828,82.812C373.608,81.836 371.818,81.348 369.46,81.348C367.101,81.348 365.19,81.796 363.726,82.69C362.262,83.504 361.123,84.642 360.31,86.106C359.578,87.489 359.09,89.075 358.846,90.864C358.602,92.654 358.48,94.524 358.48,96.476L358.48,116C358.48,121.523 354.003,126.001 348.48,126.001L340.18,126.001L340.18,76.708Z" style="fill:rgb(220,36,76);fill-rule:nonzero;"/>
            <path d="M451.84,71.348C451.84,76.87 447.363,81.348 441.84,81.348L435.736,81.348L435.736,101.113C435.736,102.739 435.818,104.244 435.98,105.626C436.143,106.928 436.509,108.066 437.078,109.042C437.648,110.018 438.502,110.79 439.64,111.361C440.86,111.849 442.446,112.092 444.398,112.092C445.374,112.092 446.635,112.01 448.18,111.848C449.807,111.604 451.027,111.117 451.84,110.385L451.84,119.109C451.84,123.024 449.388,126.666 445.496,127.098C443.3,127.342 441.145,127.464 439.03,127.464C435.94,127.464 433.093,127.139 430.49,126.488C427.888,125.838 425.61,124.821 423.658,123.439C421.706,121.975 420.161,120.104 419.022,117.826C417.965,115.549 417.436,112.784 417.436,109.531L417.436,81.348L405.724,81.348L405.724,76.708C405.724,71.185 410.202,66.708 415.724,66.708L417.436,66.708L417.436,59.14C417.436,53.617 421.914,49.14 427.436,49.14L435.736,49.14L435.736,66.708L451.84,66.708L451.84,71.348Z" style="fill:rgb(220,36,76);fill-rule:nonzero;"/>
        </g>
        <g>
            <path d="M103.79,140.09L100.751,56.306L95.248,34.217L131.983,38.106L131.983,139.456L109.543,152.407L103.79,140.09Z" style="fill:rgb(36,56,108);"/>
            <path d="M131.98,38.1L109.54,51.06L63.232,40.902L9.029,62.971L-0.002,38.1L32.988,19.05L65.988,0L98.979,19.05L131.98,38.1Z" style="fill:rgb(117,137,190);"/>
            <path d="M0,38.1L22.44,51.06L35.448,89.746L79.369,124.888L65.991,152.4L32.991,133.349L0,114.299L0,38.099" style="fill:rgb(178,191,232);"/>
            <path d="M80.868,104.56L65.991,126.492L65.991,152.402L87.101,140.222L97.978,123.98" style="fill:rgb(36,56,108);"/>
            <path d="M66,100.59L44.881,64.025L49.43,51.906L66.723,43.522L87.101,64.026L66,100.59Z" style="fill:rgb(117,137,190);"/>
            <path d="M44.881,64.022L65.991,76.202L65.991,100.582L46.467,101.422L34.657,86.342L44.881,64.022" style="fill:rgb(178,191,232);"/>
            <path d="M65.991,76.2L87.101,64.021L101.468,87.943L84.082,102.308L65.991,100.581L65.991,76.2Z" style="fill:rgb(36,56,108);"/>
            <path d="M87.101,140.22L109.541,152.401L109.541,51.061L87.761,38.491L65.991,25.921L44.211,38.491L22.441,51.061L22.441,101.35L44.211,113.92L65.991,126.491L87.101,114.3L87.101,140.22ZM87.101,88.39L65.991,100.58L44.881,88.39L44.881,64.02L65.991,51.83L87.101,64.02L87.101,88.39" style="fill:rgb(220,36,76);"/>
        </g>
        <path d="M66,126.5L66,100.586L45,88.5L45,114.371L66,126.5Z" style="fill:url(#_Linear1);fill-rule:nonzero;"/>
        <g transform="matrix(3.48488,0,0,3.48488,-329.786,-35.7528)">
            <g id="Layer1">
                <g transform="matrix(11,0,0,11,158.266,20.1206)">
                    <path d="M0.185,-0.276L0.185,-0L0.086,-0L0.086,-0.758L0.274,-0.758C0.352,-0.758 0.408,-0.749 0.444,-0.732C0.479,-0.714 0.507,-0.689 0.525,-0.655C0.544,-0.622 0.554,-0.584 0.554,-0.543C0.554,-0.494 0.541,-0.449 0.516,-0.407C0.49,-0.365 0.455,-0.333 0.409,-0.31C0.364,-0.288 0.302,-0.276 0.225,-0.276L0.185,-0.276ZM0.185,-0.352L0.227,-0.352C0.288,-0.352 0.333,-0.36 0.363,-0.376C0.392,-0.392 0.415,-0.414 0.431,-0.444C0.447,-0.473 0.455,-0.506 0.455,-0.54C0.455,-0.584 0.441,-0.618 0.412,-0.644C0.384,-0.669 0.328,-0.682 0.244,-0.682L0.185,-0.682L0.185,-0.352Z" style="fill-rule:nonzero;stroke:black;stroke-width:0.03px;"/>
                </g>
                <g transform="matrix(11,0,0,11,164.867,20.1206)">
                    <path d="M0.3,0.015C0.222,0.015 0.16,-0.012 0.113,-0.067C0.066,-0.121 0.042,-0.19 0.042,-0.273C0.042,-0.356 0.066,-0.425 0.113,-0.479C0.16,-0.533 0.222,-0.561 0.3,-0.561C0.378,-0.561 0.44,-0.533 0.487,-0.479C0.534,-0.425 0.558,-0.356 0.558,-0.273C0.558,-0.19 0.534,-0.121 0.487,-0.067C0.44,-0.012 0.378,0.015 0.3,0.015ZM0.3,-0.061C0.349,-0.061 0.387,-0.079 0.416,-0.117C0.445,-0.155 0.459,-0.207 0.459,-0.273C0.459,-0.339 0.445,-0.39 0.416,-0.428C0.387,-0.466 0.349,-0.485 0.3,-0.485C0.251,-0.485 0.213,-0.466 0.184,-0.428C0.155,-0.39 0.141,-0.339 0.141,-0.273C0.141,-0.207 0.155,-0.155 0.184,-0.117C0.213,-0.079 0.251,-0.061 0.3,-0.061Z" style="fill-rule:nonzero;stroke:black;stroke-width:0.03px;"/>
                </g>
                <g transform="matrix(11,0,0,11,171.468,20.1206)">
                    <path d="M0.099,-0L0.01,-0.545L0.094,-0.545L0.146,-0.213L0.16,-0.136L0.173,-0.213L0.26,-0.545L0.341,-0.545L0.439,-0.213L0.457,-0.136L0.468,-0.213L0.52,-0.545L0.59,-0.545L0.501,-0L0.417,-0L0.312,-0.351L0.295,-0.428L0.293,-0.428L0.278,-0.352L0.187,-0L0.099,-0Z" style="fill-rule:nonzero;stroke:black;stroke-width:0.03px;"/>
                </g>
                <g transform="matrix(11,0,0,11,178.069,20.1206)">
                    <path d="M0.529,-0.036C0.457,-0.002 0.388,0.016 0.323,0.016C0.274,0.016 0.23,0.003 0.191,-0.021C0.153,-0.045 0.122,-0.08 0.098,-0.126C0.075,-0.171 0.063,-0.22 0.063,-0.271C0.063,-0.321 0.075,-0.369 0.097,-0.415C0.119,-0.461 0.15,-0.497 0.189,-0.522C0.229,-0.548 0.273,-0.561 0.322,-0.561C0.387,-0.561 0.439,-0.537 0.478,-0.491C0.517,-0.445 0.537,-0.374 0.537,-0.277L0.537,-0.258L0.161,-0.258C0.161,-0.22 0.169,-0.186 0.185,-0.154C0.201,-0.123 0.221,-0.1 0.247,-0.084C0.273,-0.068 0.302,-0.061 0.335,-0.061C0.394,-0.061 0.458,-0.08 0.529,-0.119L0.529,-0.036ZM0.167,-0.326L0.438,-0.326L0.438,-0.339C0.438,-0.383 0.428,-0.419 0.406,-0.445C0.384,-0.472 0.355,-0.485 0.318,-0.485C0.282,-0.485 0.25,-0.471 0.223,-0.445C0.196,-0.418 0.177,-0.378 0.167,-0.326Z" style="fill-rule:nonzero;stroke:black;stroke-width:0.03px;"/>
                </g>
                <g transform="matrix(11,0,0,11,184.67,20.1206)">
                    <path d="M0.122,-0L0.122,-0.545L0.213,-0.545L0.213,-0.426C0.241,-0.471 0.274,-0.505 0.31,-0.527C0.347,-0.549 0.388,-0.561 0.433,-0.561C0.465,-0.561 0.498,-0.556 0.531,-0.545L0.531,-0.349L0.444,-0.349L0.444,-0.473C0.429,-0.476 0.417,-0.477 0.408,-0.477C0.374,-0.477 0.341,-0.464 0.308,-0.437C0.276,-0.41 0.244,-0.37 0.213,-0.317L0.213,-0L0.122,-0Z" style="fill-rule:nonzero;stroke:black;stroke-width:0.03px;"/>
                </g>
                <g transform="matrix(11,0,0,11,191.271,20.1206)">
                    <path d="M0.529,-0.036C0.457,-0.002 0.388,0.016 0.323,0.016C0.274,0.016 0.23,0.003 0.191,-0.021C0.153,-0.045 0.122,-0.08 0.098,-0.126C0.075,-0.171 0.063,-0.22 0.063,-0.271C0.063,-0.321 0.075,-0.369 0.097,-0.415C0.119,-0.461 0.15,-0.497 0.189,-0.522C0.229,-0.548 0.273,-0.561 0.322,-0.561C0.387,-0.561 0.439,-0.537 0.478,-0.491C0.517,-0.445 0.537,-0.374 0.537,-0.277L0.537,-0.258L0.161,-0.258C0.161,-0.22 0.169,-0.186 0.185,-0.154C0.201,-0.123 0.221,-0.1 0.247,-0.084C0.273,-0.068 0.302,-0.061 0.335,-0.061C0.394,-0.061 0.458,-0.08 0.529,-0.119L0.529,-0.036ZM0.167,-0.326L0.438,-0.326L0.438,-0.339C0.438,-0.383 0.428,-0.419 0.406,-0.445C0.384,-0.472 0.355,-0.485 0.318,-0.485C0.282,-0.485 0.25,-0.471 0.223,-0.445C0.196,-0.418 0.177,-0.378 0.167,-0.326Z" style="fill-rule:nonzero;stroke:black;stroke-width:0.03px;"/>
                </g>
                <g transform="matrix(11,0,0,11,197.872,20.1206)">
                    <path d="M0.44,-0.123C0.412,-0.077 0.379,-0.043 0.34,-0.02C0.301,0.004 0.265,0.015 0.233,0.015C0.187,0.015 0.146,-0.005 0.11,-0.044C0.074,-0.083 0.056,-0.143 0.056,-0.223C0.056,-0.286 0.068,-0.343 0.092,-0.392C0.116,-0.442 0.148,-0.481 0.188,-0.51C0.229,-0.539 0.279,-0.553 0.338,-0.553C0.356,-0.553 0.382,-0.551 0.417,-0.548C0.422,-0.547 0.43,-0.546 0.44,-0.545L0.44,-0.788L0.531,-0.788L0.531,-0L0.44,-0L0.44,-0.123ZM0.44,-0.23L0.44,-0.464C0.408,-0.473 0.378,-0.477 0.35,-0.477C0.294,-0.477 0.247,-0.455 0.21,-0.412C0.173,-0.369 0.154,-0.31 0.154,-0.235C0.154,-0.181 0.164,-0.141 0.185,-0.113C0.205,-0.086 0.228,-0.072 0.254,-0.072C0.283,-0.072 0.314,-0.086 0.348,-0.115C0.382,-0.143 0.413,-0.182 0.44,-0.23Z" style="fill-rule:nonzero;stroke:black;stroke-width:0.03px;"/>
                </g>
                <g transform="matrix(11,0,0,11,211.074,20.1206)">
                    <path d="M0.16,-0.423C0.188,-0.468 0.221,-0.503 0.26,-0.526C0.299,-0.549 0.334,-0.561 0.367,-0.561C0.412,-0.561 0.453,-0.541 0.49,-0.501C0.526,-0.462 0.544,-0.402 0.544,-0.322C0.544,-0.259 0.532,-0.203 0.508,-0.153C0.484,-0.103 0.451,-0.064 0.411,-0.035C0.371,-0.007 0.321,0.008 0.261,0.008C0.244,0.008 0.218,0.006 0.183,0.002C0.178,0.002 0.17,0.001 0.16,-0L0.069,-0L0.069,-0.788L0.16,-0.788L0.16,-0.423ZM0.16,-0.315L0.16,-0.081C0.193,-0.073 0.223,-0.068 0.25,-0.068C0.306,-0.068 0.352,-0.09 0.389,-0.133C0.427,-0.176 0.446,-0.235 0.446,-0.31C0.446,-0.364 0.436,-0.405 0.415,-0.433C0.395,-0.46 0.371,-0.474 0.345,-0.474C0.317,-0.474 0.286,-0.459 0.252,-0.431C0.218,-0.402 0.187,-0.363 0.16,-0.315Z" style="fill-rule:nonzero;stroke:black;stroke-width:0.03px;"/>
                </g>
                <g transform="matrix(11,0,0,11,217.675,20.1206)">
                    <path d="M0.276,-0.022L0.024,-0.545L0.125,-0.545L0.325,-0.136L0.493,-0.545L0.584,-0.545L0.373,-0.039C0.328,0.069 0.286,0.14 0.246,0.175C0.206,0.21 0.154,0.228 0.09,0.228C0.062,0.228 0.037,0.225 0.016,0.22L0.016,0.14C0.041,0.148 0.065,0.152 0.087,0.152C0.117,0.152 0.143,0.146 0.166,0.135C0.188,0.123 0.209,0.103 0.228,0.074C0.247,0.045 0.26,0.02 0.268,-0.001L0.276,-0.022Z" style="fill-rule:nonzero;stroke:black;stroke-width:0.03px;"/>
                </g>
            </g>
        </g>
    </g>
    <defs>
        <linearGradient id="_Linear1" x1="0" y1="0" x2="1" y2="0" gradientUnits="userSpaceOnUse" gradientTransform="matrix(-20.926,2.5627e-15,-2.5627e-15,-20.926,62.128,105.54)"><stop offset="0" style="stop-color:rgb(255,51,100);stop-opacity:1"/><stop offset="1" style="stop-color:rgb(201,21,64);stop-opacity:0"/></linearGradient>
    </defs>
</svg>
